<?xml version="1.0" encoding="utf-8"?>
<svg width="100%" height="100%" viewBox="0 0 300 330.421" version="1.1" style="fill-rule:evenodd;clip-rule:evenodd;stroke-linecap:round;stroke-linejoin:round;stroke-miterlimit:1.5;" xmlns="http://www.w3.org/2000/svg">
  <g transform="matrix(1.35922, 0, 0, 1.4447, 10, 5)">
    <rect id="wapuu" x="0" y="0" width="206" height="221.5" style="fill:none;"/>
    <g id="wapuu1">
      <g transform="matrix(0.95871,0,0,0.90199,8.21464,16.5608)">
        <path d="M185.093,28.301C184.053,28.041 182.358,27.917 175.538,27.917C173.336,27.917 170.833,27.93 168.172,27.943C165.168,27.958 161.961,27.974 158.76,27.974C153.615,27.974 146.408,27.937 141.28,27.643C133.068,21.672 123.607,18.485 113.137,18.169C90.45,17.473 70.364,27.282 59.486,44.142C55.81,47.638 48.894,51.525 47.025,51.94C43.889,52.637 41.859,55.383 42.197,58.468C42.442,60.692 44.023,63.191 47.55,64.352C47.143,64.753 46.755,65.173 46.394,65.608C44.003,68.489 43.003,71.763 43.578,74.83C43.695,75.446 43.855,76.034 44.061,76.593C38.888,85.397 36.167,95.39 36.167,105.666C36.167,108.26 36.342,110.843 36.689,113.4C35.875,113.259 35.057,113.186 34.24,113.186C30.305,113.186 26.658,114.892 24.236,117.867C21.562,121.153 20.623,125.548 21.595,130.245C23.574,139.81 38.065,155.935 49.618,158.709C50.756,158.981 51.843,159.12 52.848,159.12C55.939,159.12 58.492,157.817 60.039,155.451C60.53,154.699 60.885,153.901 61.131,153.085C69.016,158.523 78.131,161.89 87.787,162.869C89.879,169.695 95.496,170.833 99.001,170.833C104.285,170.833 108.85,168.684 112.106,164.724C112.4,164.729 112.695,164.732 112.99,164.732C115.224,164.732 118,164.579 121.176,164.089C111.01,175.497 96.324,182.061 85.51,182.063L85.507,182.063C80.949,182.063 74.826,180.901 71.536,175.367C67.183,168.045 60.205,163.496 53.327,163.496C46.102,163.496 41.082,168.596 40.837,176.187C40.704,180.297 42.858,184.765 47.065,189.11C54.141,196.419 67.865,203.794 82.572,203.794C85.822,203.794 89.007,203.429 92.038,202.712C118.102,196.539 141.455,175.671 148.248,152.719C173.126,133.713 171.155,81.463 162.91,58.166C162.338,56.548 161.72,54.965 161.057,53.419C162.061,53.534 163.052,53.593 164.029,53.593C166.307,53.593 168.528,53.273 170.628,52.643C183.559,48.764 189.402,39.164 189.28,33.898C189.215,31.118 187.572,28.921 185.093,28.301" style="fill-rule:nonzero;"/>
      </g>
      <g id="レイヤー-1" transform="matrix(0.95871,0,0,0.90199,-4.73221,-3.80469)">
        <g id="ball" transform="matrix(1,0,0,1,13.5044,22.5783)">
          <path d="M143.962,88.903C131.832,66.997 115.555,59.918 101.144,56.576C90.7,57.611 86.418,55.639 84.702,53.57C84.25,53.488 83.809,53.404 83.371,53.32C81.061,60.046 69.034,64.807 65.576,64.635C64.086,64.56 62.971,63.781 62.154,62.831C49.313,72.505 40.667,88.351 40.667,105.666C40.667,134.151 63.14,157.386 91.321,158.614C91.321,158.614 102.737,149.241 111.427,133.75C115.962,122.037 131.453,115.991 144.473,120.808C145.901,116.01 146.667,110.927 146.667,105.666C146.667,99.807 146.651,93.761 143.962,88.903" style="fill:rgb(190,54,49);fill-rule:nonzero;"/>
          <g transform="matrix(0.763087,0,0,0.756487,-8.29174,-17.2424)">
            <g transform="matrix(1.3031,0,0,1.3031,11.1655,23.9253)">
              <path d="M75.573,67.509C75.508,67.509 75.443,67.513 75.379,67.513C73.774,68.144 72.146,67.731 70.512,68.033C69.445,68.23 68.457,68.783 67.448,69.168C66.603,69.491 65.77,69.625 64.893,69.807C63.728,70.05 62.664,70.573 61.663,71.205C61.419,71.231 61.167,71.259 60.922,71.229C59.911,71.105 59.042,72.067 58.416,72.721C56.929,74.275 55.36,75.735 53.788,77.202C51.24,79.58 48.714,82.05 46.938,85.079C45.814,86.994 45.142,89.107 44.358,91.173C42.951,94.885 41.444,98.675 41.108,102.666C40.875,105.425 41.198,108.183 41.695,110.895C42.614,115.909 44.357,120.598 47.171,124.862C52.089,129.309 58.052,132.098 64.483,133.577C69.107,134.641 73.614,134.999 78.267,133.888C82.601,132.854 86.577,130.841 90.568,128.923C91.731,128.364 92.983,127.95 94.114,127.339C95.379,126.657 96.476,125.698 97.42,124.622C99.038,122.777 100.245,120.59 101.205,118.343C103.261,113.532 104.366,108.171 104.259,102.933C104.208,100.413 103.784,97.946 103.361,95.47C103.175,94.383 103.08,93.266 102.858,92.188C102.62,91.03 102.272,89.907 102.099,88.733C102.02,88.192 101.962,87.642 101.979,87.094C101.989,86.798 102.095,86.471 102.06,86.176C102.032,85.933 101.78,85.744 101.616,85.59C101.235,85.233 100.852,84.88 100.479,84.514C99.586,83.637 98.694,82.731 97.893,81.768C97.377,81.147 96.909,80.514 96.272,80.005C95.428,79.331 94.412,78.96 93.331,79.133C92.63,79.245 91.527,79.962 90.87,79.434C90.392,79.051 90.089,78.408 89.773,77.898C89.256,77.066 88.715,76.251 88.116,75.475C87.33,74.455 86.427,73.564 85.564,72.613C84.146,71.049 82.793,69.492 80.848,68.564C79.204,67.779 77.38,67.522 75.573,67.509" style="fill:white;fill-rule:nonzero;"/>
            </g>
          </g>
          <g id="buddicons-buddypress-logo.svg" transform="matrix(5.63968,1.83794e-15,0,5.55954,63.1524,102.265)">
            <g transform="matrix(1,0,0,1,-10,-10)">
              <g transform="matrix(1.0006,0,0,1.0006,-0.0120116,0)">
                <g>
                  <path d="M10.853,3.834C13.742,3.053 16.464,5.298 17.254,7.983C18.365,11.761 15.696,15.746 11.721,15.969C8.352,16.158 5.591,13.306 5.994,9.933C6.316,7.242 8.152,4.564 10.853,3.834ZM10.866,4.057C8.278,4.745 6.52,7.314 6.235,9.892C5.882,13.081 8.499,15.777 11.689,15.578C15.427,15.345 17.932,11.601 16.927,8.04C16.203,5.471 13.626,3.322 10.866,4.057ZM10.892,4.514C13.379,3.873 15.68,5.823 16.282,8.152C17.089,11.273 14.896,14.567 11.627,14.81C8.795,15.021 6.461,12.632 6.723,9.807C6.941,7.462 8.539,5.119 10.892,4.514ZM11.82,5.117C11.542,5.184 11.287,5.331 11.077,5.523C11.911,5.526 12.567,6.235 12.672,7.037C12.723,7.424 12.656,7.821 12.501,8.178C13.223,7.869 13.678,7.072 13.546,6.293C13.412,5.498 12.619,4.924 11.82,5.117ZM10.687,5.894C9.863,6.085 9.282,6.915 9.28,7.745C9.277,8.588 10.019,9.271 10.866,9.125C11.785,8.967 12.437,8.039 12.33,7.124C12.237,6.328 11.496,5.706 10.687,5.894ZM13.234,8.191C13.152,8.328 13.07,8.466 12.987,8.603C14.017,8.734 14.693,9.788 14.907,10.718C15.194,10.679 15.481,10.641 15.767,10.602C15.521,9.488 14.688,7.676 13.234,8.191ZM12.08,8.891C11.711,9.395 11.338,9.896 10.961,10.393C10.545,10.031 10.132,9.667 9.722,9.299C8.211,9.648 7.641,11.3 7.777,12.695C10.08,12.428 12.382,12.16 14.685,11.891C14.562,10.527 13.77,8.599 12.08,8.891Z" style="fill:rgb(216,72,0);"/>
                </g>
              </g>
            </g>
          </g>
        </g>
        <g transform="matrix(1,0,0,1,13.5044,22.5783)">
          <path d="M131.668,157C117.335,183.333 78.902,196.561 67.668,177.667C60.335,165.333 45.71,164.696 45.335,176.333C45.001,186.667 69.208,203.494 91.001,198.333C116.335,192.333 138.668,171.667 144.335,150L131.668,157ZM139.001,32C133.012,31.515 137.668,36.001 139.668,37.667C141.668,39.333 156.001,52.333 169.335,48.333C182.668,44.333 186.669,33.334 184.001,32.667C181.335,32 151.335,33 139.001,32M59.335,59.333C46.335,62.999 45.001,57 48.001,56.333C51.001,55.666 59.001,51 63.001,47L59.335,59.333Z" style="fill:rgb(158,22,17);fill-rule:nonzero;"/>
        </g>
        <g transform="matrix(1,0,0,1,13.5044,22.5783)">
          <path d="M158.668,59.667C156.931,54.759 154.763,50.215 152.198,46.107C145.73,43.043 140.783,38.595 139.668,37.667C137.668,36.001 133.012,31.515 139.001,32C139.21,32.017 139.437,32.032 139.656,32.048C132.238,26.344 123.274,22.978 113.001,22.667C91.001,22.001 72.668,31.667 63.001,47C56.481,57.341 61.335,62.999 64.335,64.333C67.335,65.667 80.001,60.667 83.668,54C92.335,59.333 100.178,57.573 108.512,54.907L120.361,57.258L120.361,57.257L120.617,57.332C120.092,57.225 119.563,57.135 119.032,57.053C118.679,56.997 118.324,56.949 117.969,56.903C117.914,56.896 117.859,56.886 117.805,56.879C117.814,56.882 117.824,56.884 117.834,56.886C116.093,56.667 114.338,56.554 112.589,56.559C124.318,59.08 153.417,68.417 143.984,88.891C143.917,88.987 144.281,89.422 144.34,89.707C144.556,90.76 146.093,97.173 146.628,104.214C146.674,104.83 146.667,105.62 146.667,106.243C146.667,108.041 146.563,109.108 146.439,110.617C146.187,113.655 145.723,116.786 144.368,120.786C149.269,124.707 153.545,130.56 154.253,139.184C167.782,116.995 165.078,77.78 158.668,59.667" style="fill:rgb(216,72,0);fill-rule:nonzero;"/>
        </g>
        <g transform="matrix(1,0,0,1,13.5044,22.5783)">
          <path d="M41.335,120.333C33.196,114.071 24.001,119.667 26.001,129.333C27.644,137.275 41.069,152.029 50.668,154.333C59.001,156.333 57.317,147.341 56.001,144.333C53.668,139 45.668,123.667 41.335,120.333" style="fill:rgb(216,72,0);fill-rule:nonzero;"/>
        </g>
        <g transform="matrix(1,0,0,1,13.5044,22.5783)">
          <path d="M58.668,64.333C55.335,63 47.001,68.667 48.001,74C49.001,79.333 55.001,79.333 59.001,75.333C63.001,71.333 61.899,65.625 58.668,64.333" style="fill:rgb(216,72,0);fill-rule:nonzero;"/>
        </g>
        <g transform="matrix(1,0,0,1,13.5044,22.5783)">
          <path d="M154.589,47.144C152.785,46.438 151.072,45.593 149.487,44.701C152.586,49.199 155.203,54.37 157.254,60.167C164.895,81.758 166.961,132.6 143.485,148.764C128.569,159.034 114.727,159.052 109.468,158.588C108.66,158.519 107.915,159.123 107.841,159.949C107.768,160.774 108.378,161.503 109.203,161.576C110.182,161.663 111.441,161.734 112.938,161.734C119.969,161.734 132.225,160.159 145.186,151.235C159.305,141.514 163.762,121.698 165.015,106.788C166.595,87.986 163.676,69.322 160.082,59.166C158.545,54.821 156.703,50.807 154.589,47.144M110.792,55.762C101.971,58.584 92.669,60.526 84.165,56.012C79.432,62.583 67.422,67.345 63.726,65.704C61.951,64.914 59.709,62.938 58.744,59.762C57.919,57.046 57.768,52.489 61.733,46.2C72.032,29.864 91.212,20.497 113.046,21.167C124.159,21.504 134.091,25.349 142.251,32.2C141.075,32.144 139.978,32.079 139.001,32C138.182,31.933 137.568,31.963 137.113,32.063C130.11,27.171 121.94,24.438 112.957,24.166C92.194,23.538 73.997,32.373 64.27,47.8C61.611,52.018 60.692,55.853 61.615,58.889C62.287,61.101 63.829,62.466 64.945,62.962C66.834,63.804 78.86,59.63 82.354,53.277C82.552,52.917 82.888,52.654 83.286,52.55C83.684,52.446 84.106,52.508 84.455,52.723C92.659,57.771 101.88,55.463 109.878,52.904C110.67,52.653 111.511,53.087 111.764,53.876C112.016,54.665 111.582,55.509 110.792,55.762" style="fill-rule:nonzero;"/>
        </g>
        <g transform="matrix(1,0,0,1,13.5044,22.5783)">
          <path d="M82.676,200.779C71.01,200.779 59.569,195.784 52.313,189.853C46.793,185.341 43.703,180.395 43.836,176.284C43.995,171.347 46.481,167.898 50.656,166.823C55.958,165.454 63.95,168.479 68.957,176.9C73.08,183.833 80.572,185.177 86.098,185.057C102.568,184.745 121.592,172.374 130.351,156.283C130.746,155.555 131.658,155.286 132.385,155.682C133.112,156.078 133.382,156.989 132.986,157.716C123.752,174.681 103.619,187.725 86.156,188.056C77.149,188.205 70.17,184.808 66.379,178.433C62.126,171.281 55.63,168.639 51.405,169.728C48.572,170.458 46.949,172.82 46.834,176.381C46.734,179.505 49.491,183.673 54.211,187.531C62.697,194.468 77.259,200.047 90.656,196.873C115.283,191.041 137.248,171.168 142.884,149.62C143.094,148.818 143.908,148.339 144.715,148.549C145.516,148.758 145.996,149.578 145.786,150.38C139.886,172.937 116.991,193.718 91.347,199.793C88.484,200.47 85.572,200.779 82.676,200.779" style="fill-rule:nonzero;"/>
        </g>
        <g transform="matrix(1,0,0,1,13.5044,22.5783)">
          <path d="M137.746,33.48C138.137,34.119 139.096,35.238 140.628,36.515L141.014,36.842C151.435,45.727 159.279,47.593 164.024,47.594L164.026,47.594C165.721,47.594 167.361,47.359 168.904,46.897C176.225,44.7 180.722,40.163 182.488,36.65C183.147,35.337 183.281,34.475 183.281,34.07C182.285,33.969 179.695,33.918 175.561,33.918C173.361,33.918 170.859,33.93 168.198,33.944C165.171,33.959 161.937,33.975 158.71,33.975C152.738,33.975 144.184,33.925 138.88,33.495C138.418,33.458 138.01,33.458 137.746,33.48M164.026,50.594L164.024,50.594C158.775,50.593 150.184,48.603 139.067,39.125L138.708,38.819C133.793,34.725 134.471,32.854 134.693,32.239C135.119,31.061 136.289,30.463 138.168,30.463C138.456,30.463 138.773,30.477 139.122,30.505C144.318,30.926 152.79,30.975 158.71,30.975C161.932,30.975 165.16,30.959 168.182,30.944C170.85,30.93 173.357,30.918 175.561,30.918C181.913,30.918 183.639,31.03 184.365,31.212C185.53,31.503 186.247,32.534 186.28,33.968C186.364,37.607 181.468,46.259 169.766,49.77C167.943,50.316 166.013,50.594 164.026,50.594" style="fill-rule:nonzero;"/>
        </g>
        <g transform="matrix(1,0,0,1,13.5044,22.5783)">
          <path d="M34.239,119.187C32.086,119.187 30.185,120.063 28.889,121.655C27.375,123.515 26.871,126.134 27.469,129.029C28.998,136.416 42.126,150.741 51.017,152.875C51.697,153.038 52.313,153.121 52.847,153.121C54.234,153.121 54.75,152.577 55.017,152.169C56.101,150.509 55.487,146.902 54.627,144.934C52.165,139.308 44.363,124.555 40.42,121.521C38.434,119.995 36.298,119.187 34.239,119.187M52.847,156.121C52.078,156.121 51.226,156.01 50.318,155.791C40.173,153.356 26.288,138.124 24.532,129.636C23.747,125.842 24.468,122.334 26.562,119.762C28.413,117.491 31.211,116.187 34.239,116.187C36.964,116.187 39.735,117.209 42.25,119.144C47.188,122.944 55.567,139.599 57.375,143.731C58.127,145.451 59.62,150.611 57.528,153.81C56.839,154.865 55.466,156.121 52.847,156.121" style="fill-rule:nonzero;"/>
        </g>
        <g transform="matrix(1,0,0,1,13.5044,22.5783)">
          <path d="M57.526,65.636C55.911,65.636 52.96,67.091 51.01,69.44C50.298,70.299 49.151,71.997 49.475,73.724C49.934,76.171 51.557,76.684 52.839,76.684C54.523,76.684 56.429,75.783 57.94,74.273C59.625,72.588 60.38,70.364 59.962,68.324C59.702,67.057 59.009,66.085 58.111,65.726C57.963,65.667 57.761,65.636 57.526,65.636M52.839,79.684C49.571,79.684 47.152,77.613 46.526,74.277C46.119,72.104 46.891,69.706 48.702,67.525C51.052,64.692 54.763,62.636 57.526,62.636C58.148,62.636 58.719,62.739 59.224,62.941C61.062,63.676 62.436,65.462 62.9,67.72C63.523,70.751 62.462,73.994 60.061,76.394C57.97,78.485 55.337,79.684 52.839,79.684" style="fill-rule:nonzero;"/>
        </g>
        <g transform="matrix(1,0,0,1,13.5044,22.5783)">
          <path d="M52.095,62.018C48.702,62.018 47.006,60.991 46.192,60.168C45.302,59.267 44.96,58.082 45.279,56.999C45.594,55.929 46.49,55.133 47.676,54.869C50.26,54.294 57.997,49.883 61.941,45.94C62.527,45.354 63.476,45.354 64.062,45.94C64.648,46.525 64.648,47.476 64.062,48.061C59.93,52.193 51.695,57.049 48.327,57.798C48.187,57.829 48.143,57.877 48.142,57.877C48.157,57.872 48.245,58.039 48.577,58.264C49.202,58.686 51.788,59.903 58.928,57.89C59.724,57.668 60.554,58.129 60.779,58.926C61.004,59.724 60.539,60.552 59.743,60.777C56.536,61.682 54.037,62.018 52.095,62.018" style="fill-rule:nonzero;"/>
        </g>
        <g transform="matrix(1,0,0,1,13.5044,22.5783)">
          <path d="M105.668,35.334C104.011,35.334 102.668,36.677 102.668,38.334C102.668,39.991 104.011,41.334 105.668,41.334C107.325,41.334 108.668,39.991 108.668,38.334C108.668,36.677 107.325,35.334 105.668,35.334M71.001,43.667C69.345,43.667 68.001,45.01 68.001,46.667C68.001,48.324 69.345,49.667 71.001,49.667C72.658,49.667 74.001,48.324 74.001,46.667C74.001,45.01 72.658,43.667 71.001,43.667M87.335,43.333C90.335,42.999 90.001,46.333 87.335,48.333C84.876,50.177 84.668,50 82.001,49.667C79.335,49.334 78.616,47.122 81.001,45.333C82.335,44.333 84.335,43.667 87.335,43.333" style="fill-rule:nonzero;"/>
        </g>
      </g>
      <g id="patte" transform="matrix(0.95871,0,0,0.90199,8.21464,16.5608)">
        <g transform="matrix(0.978626,0,0,0.978626,1.88855,2.4458)">
          <path d="M146.453,114.429C146.086,116.941 145.414,119.194 144.3,120.903C134.486,115.242 116.756,121.646 111.445,133.712C108.789,126.948 100.026,114.095 92.668,119C84.668,124.333 90.001,135.666 91.335,144.333C92.668,153 88.001,166.333 99.001,166.333C104.741,166.333 108.028,163.156 109.861,160.118C118.034,160.733 131.107,159.107 144.335,150C150.973,145.429 155.615,138.247 158.719,129.792C156.557,122.366 151.485,117.527 146.453,114.429" style="fill:rgb(216,72,0);fill-rule:nonzero;"/>
        </g>
        <g transform="matrix(0.978626,0,0,0.978626,1.88855,2.4458)">
          <path d="M144.368,120.786C144.344,120.824 144.324,120.866 144.3,120.903C134.486,115.241 116.756,121.646 111.445,133.712C108.789,126.948 100.026,114.095 92.668,119C84.668,124.333 90.001,135.666 91.335,144.333C92.668,153 88.001,166.333 99.001,166.333C104.741,166.333 108.028,163.156 109.861,160.118C118.034,160.733 131.107,159.107 144.335,150C148.333,147.247 151.6,143.537 154.253,139.184C153.545,130.56 149.269,124.707 144.368,120.786" style="fill:rgb(216,72,0);fill-rule:nonzero;"/>
        </g>
        <path d="M96.14,119.91C95.311,119.91 94.538,120.157 93.778,120.664C89.054,123.813 90.007,129.512 92.002,137.844C92.495,139.906 93.005,142.038 93.312,144.028C93.71,146.617 93.614,149.51 93.521,152.305C93.376,156.648 93.227,161.139 95.099,163.074C95.918,163.921 97.195,164.333 99.001,164.333C108.146,164.333 109.958,154.731 110.032,154.323C110.046,154.237 110.068,154.147 110.094,154.064C111.877,148.419 112.403,143.851 110.081,135.893C108.596,130.546 101.535,119.91 96.14,119.91M99.001,168.333C96.094,168.333 93.815,167.499 92.224,165.855C89.173,162.7 89.351,157.348 89.523,152.173C89.61,149.559 89.7,146.857 89.359,144.637C89.078,142.809 88.609,140.849 88.112,138.775C86.26,131.038 84.161,122.267 91.559,117.336C92.978,116.389 94.519,115.91 96.14,115.91C104.827,115.91 112.484,129.596 113.928,134.798C116.498,143.606 115.89,148.95 113.948,155.143C113.099,159.787 108.936,168.333 99.001,168.333" style="fill-rule:nonzero;"/>
        <path d="M131.471,117.949C122.272,118.881 114.684,124.125 110.655,132.339C110.289,133.083 110.597,133.981 111.34,134.347C111.553,134.451 111.779,134.5 112,134.5C112.554,134.5 113.087,134.191 113.348,133.661C118.227,123.717 126.986,121.419 131.773,120.933C138.291,120.277 144.89,122.231 147.482,125.584C147.987,126.24 148.931,126.36 149.585,125.853C150.24,125.347 150.362,124.405 149.855,123.75C148.924,122.545 147.627,121.496 146.081,120.622C147.461,115.781 148.167,110.754 148.167,105.666C148.167,99.77 147.232,93.971 145.385,88.429C145.123,87.643 144.274,87.219 143.489,87.48C142.702,87.742 142.278,88.591 142.539,89.377C144.284,94.613 145.167,100.093 145.167,105.666C145.167,110.317 144.541,114.913 143.323,119.347C139.866,118.067 135.674,117.522 131.471,117.949" style="fill-rule:nonzero;"/>
      </g>
      <g id="bras" transform="matrix(0.95871,0,0,0.90199,8.21464,16.5608)">
        <path d="M120.361,57.257L120.617,57.332C109.165,54.984 96.453,58.067 89.335,64.333C81.001,71.667 86.669,77.001 93.001,77.667C99.335,78.333 111.667,72.667 121.335,74.667C131.001,76.667 133.966,80.209 144.3,89.542C144.3,89.542 144.321,89.626 144.357,89.775C159.026,70.128 134.758,60.87 120.361,57.257" style="fill:rgb(216,72,0);fill-rule:nonzero;"/>
        <path d="M147.668,93.5C147.309,93.5 146.949,93.373 146.662,93.113L145.477,92.04C135.776,83.27 129.922,77.976 121.031,76.136C115.682,75.03 109.298,76.446 103.666,77.695C99.397,78.643 95.712,79.463 92.844,79.159C88.438,78.695 84.947,76.376 83.952,73.251C83.251,71.049 83.443,67.52 88.344,63.207C97.499,55.149 114.429,52.688 126.886,57.605C127.656,57.909 128.034,58.78 127.731,59.551C127.426,60.322 126.554,60.701 125.784,60.395C114.284,55.857 98.71,58.08 90.326,65.459C87.451,67.989 86.202,70.433 86.811,72.34C87.435,74.3 89.985,75.842 93.158,76.175C95.543,76.423 99.172,75.62 103.017,74.766C108.942,73.451 115.66,71.96 121.639,73.198C131.329,75.203 137.758,81.016 147.488,89.815L148.674,90.887C149.288,91.442 149.336,92.391 148.781,93.005C148.485,93.333 148.077,93.5 147.668,93.5" style="fill-rule:nonzero;"/>
      </g>
      <g transform="matrix(0.735714,0,0,0.692187,0,0)">
        <path d="M9.399,13.624C9.453,13.701 9.507,13.777 9.561,13.854" style="fill:none;stroke:white;stroke-width:0.75px;"/>
      </g>
    </g>
  </g>
</svg>